<svg xmlns="http://www.w3.org/2000/svg" xmlns:dc="http://purl.org/dc/elements/1.1/" xmlns:ns2="http://creativecommons.org/ns#" xmlns:rdf="http://www.w3.org/1999/02/22-rdf-syntax-ns#" width="200mm" height="200mm" viewBox="0 0 200 200" version="1.1" id="svg865">
  <defs id="defs859" />
  <metadata id="metadata862">
    <rdf:RDF>
      <ns2:Work rdf:about="">
        <dc:format>image/svg+xml</dc:format>
        <dc:type rdf:resource="http://purl.org/dc/dcmitype/StillImage" />
        <dc:title />
      </ns2:Work>
    </rdf:RDF>
  </metadata>
  <g id="layer1">
    <path transform="scale(0.26458333)" d="M 377.99805 11.335938 A 3.7795276 3.7795276 0 0 0 377.8125 11.337891 A 3.7795276 3.7795276 0 0 0 376.9707 11.464844 A 3.7795276 3.7795276 0 0 0 375.20898 12.513672 A 3.7795276 3.7795276 0 0 0 374.89453 12.890625 A 3.7795276 3.7795276 0 0 0 374.71289 13.162109 A 3.7795276 3.7795276 0 0 0 374.55664 13.449219 A 3.7795276 3.7795276 0 0 0 374.48828 13.597656 A 3.7795276 3.7795276 0 0 0 374.42578 13.75 A 3.7795276 3.7795276 0 0 0 374.36914 13.902344 A 3.7795276 3.7795276 0 0 0 374.32031 14.058594 A 3.7795276 3.7795276 0 0 0 374.26562 14.259766 A 3.7795276 3.7795276 0 0 0 374.26562 14.263672 L 352.78125 94.458984 A 3.7795276 3.7795276 0 0 0 355.45312 99.087891 A 3.7795276 3.7795276 0 0 0 360.08203 96.414062 L 374.17383 43.835938 L 374.17383 379.8418 A 3.7791685 3.7791685 0 0 0 377.95312 383.62109 A 3.7791685 3.7791685 0 0 0 381.73242 379.8418 L 381.73242 43.835938 L 395.82422 96.414062 A 3.7795276 3.7795276 0 0 0 400.45312 99.087891 A 3.7795276 3.7795276 0 0 0 403.125 94.458984 L 381.62695 14.207031 A 3.7795276 3.7795276 0 0 0 381.60742 14.136719 A 3.7795276 3.7795276 0 0 0 381.50781 13.824219 A 3.7795276 3.7795276 0 0 0 381.32422 13.398438 A 3.7795276 3.7795276 0 0 0 381.3125 13.375 A 3.7795276 3.7795276 0 0 0 381.30273 13.357422 A 3.7795276 3.7795276 0 0 0 381.14844 13.091797 A 3.7795276 3.7795276 0 0 0 381.05859 12.957031 A 3.7795276 3.7795276 0 0 0 380.97852 12.84375 A 3.7795276 3.7795276 0 0 0 380.96289 12.824219 A 3.7795276 3.7795276 0 0 0 380.85938 12.695312 A 3.7795276 3.7795276 0 0 0 380.75195 12.572266 A 3.7795276 3.7795276 0 0 0 380.64062 12.455078 A 3.7795276 3.7795276 0 0 0 380.52344 12.341797 A 3.7795276 3.7795276 0 0 0 380.41992 12.248047 A 3.7795276 3.7795276 0 0 0 380.40039 12.232422 A 3.7795276 3.7795276 0 0 0 380.27344 12.128906 A 3.7795276 3.7795276 0 0 0 380.16406 12.046875 A 3.7795276 3.7795276 0 0 0 380.14258 12.03125 A 3.7795276 3.7795276 0 0 0 380.125 12.019531 A 3.7795276 3.7795276 0 0 0 379.86719 11.855469 A 3.7795276 3.7795276 0 0 0 379.74805 11.787109 A 3.7795276 3.7795276 0 0 0 379.72461 11.775391 A 3.7795276 3.7795276 0 0 0 379.60352 11.712891 A 3.7795276 3.7795276 0 0 0 379.57812 11.701172 A 3.7795276 3.7795276 0 0 0 379.45312 11.644531 A 3.7795276 3.7795276 0 0 0 379.42969 11.634766 A 3.7795276 3.7795276 0 0 0 379.42773 11.634766 A 3.7795276 3.7795276 0 0 0 379.27734 11.574219 A 3.7795276 3.7795276 0 0 0 378.99219 11.480469 A 3.7795276 3.7795276 0 0 0 378.9668 11.472656 A 3.7795276 3.7795276 0 0 0 378.93359 11.464844 A 3.7795276 3.7795276 0 0 0 378.80859 11.433594 A 3.7795276 3.7795276 0 0 0 378.77539 11.425781 A 3.7795276 3.7795276 0 0 0 378.64844 11.400391 A 3.7795276 3.7795276 0 0 0 378.61523 11.394531 A 3.7795276 3.7795276 0 0 0 378.59375 11.390625 A 3.7795276 3.7795276 0 0 0 378.45312 11.369141 A 3.7795276 3.7795276 0 0 0 378.29102 11.351562 A 3.7795276 3.7795276 0 0 0 377.99805 11.335938 z " style="color:#000000;font-style:normal;font-variant:normal;font-weight:normal;font-stretch:normal;font-size:medium;line-height:normal;font-family:sans-serif;font-variant-ligatures:normal;font-variant-position:normal;font-variant-caps:normal;font-variant-numeric:normal;font-variant-alternates:normal;font-variant-east-asian:normal;font-feature-settings:normal;font-variation-settings:normal;text-indent:0;text-align:start;text-decoration:none;text-decoration-line:none;text-decoration-style:solid;text-decoration-color:#000000;letter-spacing:normal;word-spacing:normal;text-transform:none;writing-mode:lr-tb;direction:ltr;text-orientation:mixed;dominant-baseline:auto;baseline-shift:baseline;text-anchor:start;white-space:normal;shape-padding:0;shape-margin:0;inline-size:0;clip-rule:nonzero;display:inline;overflow:visible;visibility:visible;opacity:1;isolation:auto;mix-blend-mode:normal;color-interpolation:sRGB;color-interpolation-filters:linearRGB;solid-color:#000000;solid-opacity:1;vector-effect:none;fill:#000000;fill-opacity:1;fill-rule:nonzero;stroke:none;stroke-width:7.55834;stroke-linecap:round;stroke-linejoin:miter;stroke-miterlimit:4;stroke-dasharray:none;stroke-dashoffset:0;stroke-opacity:1;color-rendering:auto;image-rendering:auto;shape-rendering:auto;text-rendering:auto;enable-background:accumulate;stop-color:#000000;stop-opacity:1" id="path835" fill="param(fill)" stroke="param(outline)" stroke-width="param(outline-width) 0" fill-opacity="param(fill-opacity)" stroke-opacity="param(outline-opacity)" />
  </g>
</svg>