<svg xmlns="http://www.w3.org/2000/svg" xmlns:dc="http://purl.org/dc/elements/1.1/" xmlns:ns2="http://creativecommons.org/ns#" xmlns:rdf="http://www.w3.org/1999/02/22-rdf-syntax-ns#" id="svg8" version="1.1" viewBox="0 0 50 50" height="50mm" width="50mm">
  <defs id="defs2" />
  <metadata id="metadata5">
    <rdf:RDF>
      <ns2:Work rdf:about="">
        <dc:format>image/svg+xml</dc:format>
        <dc:type rdf:resource="http://purl.org/dc/dcmitype/StillImage" />
        <dc:title />
      </ns2:Work>
    </rdf:RDF>
  </metadata>
  <g id="layer1">
    <path transform="scale(0.26458333)" d="M 90.708984 0 L 90.708984 18.994141 C 52.009325 20.905831 20.905831 52.009325 18.994141 90.708984 L 0 90.708984 L 0 98.267578 L 18.994141 98.267578 C 20.905831 136.96724 52.009325 168.07073 90.708984 169.98242 L 90.708984 188.97656 L 98.267578 188.97656 L 98.267578 169.98242 C 136.95545 168.06978 167.97889 136.95735 169.89844 98.267578 L 188.97656 98.267578 L 188.97656 90.708984 L 169.89844 90.708984 C 167.97825 52.020118 136.95459 20.905317 98.267578 18.992188 L 98.267578 0 L 90.708984 0 z M 90.708984 26.566406 L 90.708984 37.935547 C 62.45113 39.805167 39.805167 62.451133 37.935547 90.708984 L 26.566406 90.708984 C 28.454703 56.106245 56.106245 28.454703 90.708984 26.566406 z M 98.267578 26.566406 C 132.86948 28.455563 160.5219 56.10684 162.41016 90.708984 L 151.05469 90.708984 A 56.692913 56.692913 0 0 0 113.80664 41.1875 C 113.80471 41.186797 113.80271 41.186249 113.80078 41.185547 A 56.692913 56.692913 0 0 0 111.32617 40.353516 C 111.22285 40.321263 111.1192 40.289487 111.01562 40.257812 A 56.692913 56.692913 0 0 0 108.82422 39.638672 C 108.64213 39.590979 108.46014 39.543962 108.27734 39.498047 A 56.692913 56.692913 0 0 0 106.08594 38.996094 C 105.8974 38.956697 105.70875 38.918369 105.51953 38.880859 A 56.692913 56.692913 0 0 0 103.24219 38.474609 C 103.09339 38.451425 102.9441 38.430223 102.79492 38.408203 A 56.692913 56.692913 0 0 0 100.4043 38.105469 C 100.29434 38.094007 100.18436 38.083095 100.07422 38.072266 A 56.692913 56.692913 0 0 0 98.267578 37.919922 L 98.267578 26.566406 z M 94.488281 45.353516 L 94.488281 94.488281 L 143.62109 94.488281 C 143.6211 121.66909 121.66909 143.62109 94.488281 143.62109 C 67.307469 143.62109 45.353512 121.66909 45.353516 94.488281 C 45.353516 67.307476 67.307469 45.353516 94.488281 45.353516 z M 26.566406 98.267578 L 37.935547 98.267578 C 39.805165 126.52543 62.45113 149.1714 90.708984 151.04102 L 90.708984 162.41016 C 56.10684 160.5219 28.455563 132.86948 26.566406 98.267578 z M 150.98242 98.267578 L 162.41016 98.267578 C 160.52104 132.86889 132.86889 160.52104 98.267578 162.41016 L 98.267578 151.04102 C 126.51482 149.17017 149.10939 126.5189 150.98242 98.267578 z " style="color:#000000;font-style:normal;font-variant:normal;font-weight:normal;font-stretch:normal;font-size:medium;line-height:normal;font-family:sans-serif;font-variant-ligatures:normal;font-variant-position:normal;font-variant-caps:normal;font-variant-numeric:normal;font-variant-alternates:normal;font-variant-east-asian:normal;font-feature-settings:normal;font-variation-settings:normal;text-indent:0;text-align:start;text-decoration:none;text-decoration-line:none;text-decoration-style:solid;text-decoration-color:#000000;letter-spacing:normal;word-spacing:normal;text-transform:none;writing-mode:lr-tb;direction:ltr;text-orientation:mixed;dominant-baseline:auto;baseline-shift:baseline;text-anchor:start;white-space:normal;shape-padding:0;shape-margin:0;inline-size:0;clip-rule:nonzero;display:inline;overflow:visible;visibility:visible;opacity:1;isolation:auto;mix-blend-mode:normal;color-interpolation:sRGB;color-interpolation-filters:linearRGB;solid-color:#000000;solid-opacity:1;vector-effect:none;fill:#000000;fill-opacity:1;fill-rule:nonzero;stroke:none;stroke-width:7.55906;stroke-linecap:round;stroke-linejoin:round;stroke-miterlimit:4;stroke-dasharray:none;stroke-dashoffset:0;stroke-opacity:1;paint-order:stroke fill markers;color-rendering:auto;image-rendering:auto;shape-rendering:auto;text-rendering:auto;enable-background:accumulate;stop-color:#000000;stop-opacity:1" id="path2653" fill="param(fill)" stroke="param(outline)" stroke-width="param(outline-width) 0" fill-opacity="param(fill-opacity)" stroke-opacity="param(outline-opacity)" />
  </g>
  <style type="text/css" id="style835">
	.st0{fill:#FFFFFF;}
	.st1{fill:#1C1B1C;}
	.st2{fill:#FFF200;}
	.st3{fill:#1D1A00;}
	.st4{fill:#EC008C;}
	.st5{fill:#1E0008;}
	.st6{fill:#ED1C24;}
	.st7{fill:#1E0000;}
	.st8{fill:#00AEEF;}
	.st9{fill:#00121D;}
	.st10{fill:#00A651;}
	.st11{fill:#001300;}
	.st12{fill:#2E3192;}
	.st13{fill:#00000D;}
	.st14{fill:#363639;}
</style>
</svg>