<?xml version="1.0" encoding="UTF-8" standalone="no"?>
<svg
   xmlns:dc="http://purl.org/dc/elements/1.1/"
   xmlns:cc="http://creativecommons.org/ns#"
   xmlns:rdf="http://www.w3.org/1999/02/22-rdf-syntax-ns#"
   xmlns:svg="http://www.w3.org/2000/svg"
   xmlns="http://www.w3.org/2000/svg"
   id="svg8"
   version="1.1"
   viewBox="0 0 50 50"
   height="50mm"
   width="50mm">
  <defs
     id="defs2" />
  <metadata
     id="metadata5">
    <rdf:RDF>
      <cc:Work
         rdf:about="">
        <dc:format>image/svg+xml</dc:format>
        <dc:type
           rdf:resource="http://purl.org/dc/dcmitype/StillImage" />
        <dc:title></dc:title>
      </cc:Work>
    </rdf:RDF>
  </metadata>
  <g
     id="layer1-1"
     transform="rotate(180,25.000024,25.000024)"
     style="fill:#c0c0c0;fill-opacity:1">
    <path
       stroke-opacity="param(outline-opacity)"
       fill-opacity="param(fill-opacity)"
       stroke-width="param(outline-width) 0"
       stroke="param(outline)"
       fill="param(fill)"
       id="path2653-5"
       style="color:#000000;font-style:normal;font-variant:normal;font-weight:normal;font-stretch:normal;font-size:medium;line-height:normal;font-family:sans-serif;font-variant-ligatures:normal;font-variant-position:normal;font-variant-caps:normal;font-variant-numeric:normal;font-variant-alternates:normal;font-variant-east-asian:normal;font-feature-settings:normal;font-variation-settings:normal;text-indent:0;text-align:start;text-decoration:none;text-decoration-line:none;text-decoration-style:solid;text-decoration-color:#000000;letter-spacing:normal;word-spacing:normal;text-transform:none;writing-mode:lr-tb;direction:ltr;text-orientation:mixed;dominant-baseline:auto;baseline-shift:baseline;text-anchor:start;white-space:normal;shape-padding:0;shape-margin:0;inline-size:0;clip-rule:nonzero;display:inline;overflow:visible;visibility:visible;opacity:1;isolation:auto;mix-blend-mode:normal;color-interpolation:sRGB;color-interpolation-filters:linearRGB;solid-color:#000000;solid-opacity:1;vector-effect:none;fill:#c0c0c0;fill-opacity:1;fill-rule:nonzero;stroke:none;stroke-width:7.55906;stroke-linecap:round;stroke-linejoin:round;stroke-miterlimit:4;stroke-dasharray:none;stroke-dashoffset:0;stroke-opacity:1;paint-order:stroke fill markers;color-rendering:auto;image-rendering:auto;shape-rendering:auto;text-rendering:auto;enable-background:accumulate;stop-color:#000000;stop-opacity:1"
       d="M 90.708984,0 V 18.994141 C 52.009325,20.905831 20.905831,52.009325 18.994141,90.708984 H 0 v 7.558594 h 18.994141 c 1.91169,38.699662 33.015184,69.803152 71.714843,71.714842 v 18.99414 h 7.558594 v -18.99414 c 38.687872,-1.91264 69.711312,-33.02507 71.630862,-71.714842 h 19.07812 V 90.708984 H 169.89844 C 167.97825,52.020118 136.95459,20.905317 98.267578,18.992188 V 0 Z m 0,26.566406 V 37.935547 C 62.45113,39.805167 39.805167,62.451133 37.935547,90.708984 H 26.566406 C 28.454703,56.106245 56.106245,28.454703 90.708984,26.566406 Z m 7.558594,0 C 132.86948,28.455563 160.5219,56.10684 162.41016,90.708984 H 151.05469 A 56.692913,56.692913 0 0 0 113.80664,41.1875 c -0.002,-7.03e-4 -0.004,-0.0013 -0.006,-0.002 a 56.692913,56.692913 0 0 0 -2.47461,-0.832031 c -0.10332,-0.03225 -0.20697,-0.06403 -0.31055,-0.0957 a 56.692913,56.692913 0 0 0 -2.1914,-0.61914 c -0.18209,-0.04769 -0.36408,-0.09471 -0.54688,-0.140625 a 56.692913,56.692913 0 0 0 -2.1914,-0.501953 c -0.18854,-0.0394 -0.37719,-0.07773 -0.56641,-0.115235 a 56.692913,56.692913 0 0 0 -2.27734,-0.40625 c -0.1488,-0.02318 -0.29809,-0.04439 -0.44727,-0.06641 a 56.692913,56.692913 0 0 0 -2.39062,-0.302734 c -0.10996,-0.01146 -0.21994,-0.02237 -0.33008,-0.0332 a 56.692913,56.692913 0 0 0 -1.806642,-0.152344 z m -3.779297,18.78711 v 49.134765 h 49.132809 c 1e-5,27.180809 -21.952,49.132809 -49.132809,49.132809 -27.180812,0 -49.134769,-21.952 -49.134765,-49.132809 0,-27.180805 21.953953,-49.134765 49.134765,-49.134765 z M 26.566406,98.267578 H 37.935547 C 39.805165,126.52543 62.45113,149.1714 90.708984,151.04102 v 11.36914 C 56.10684,160.5219 28.455563,132.86948 26.566406,98.267578 Z m 124.416014,0 h 11.42774 C 160.52104,132.86889 132.86889,160.52104 98.267578,162.41016 V 151.04102 C 126.51482,149.17017 149.10939,126.5189 150.98242,98.267578 Z"
       transform="scale(0.26458333)" />
  </g>
  <g
     id="layer1"
     style="stroke-width:1.00012499;stroke-miterlimit:4;stroke-dasharray:none;fill:#808080;fill-opacity:1">
    <path
       transform="scale(0.26458333)"
       d="M 90.708984 0 L 90.708984 18.994141 C 52.009325 20.905831 20.905831 52.009325 18.994141 90.708984 L 0 90.708984 L 0 98.267578 L 18.994141 98.267578 C 20.905831 136.96724 52.009325 168.07073 90.708984 169.98242 L 90.708984 188.97656 L 98.267578 188.97656 L 98.267578 169.98242 C 136.95545 168.06978 167.97889 136.95735 169.89844 98.267578 L 188.97656 98.267578 L 188.97656 90.708984 L 169.89844 90.708984 C 167.97825 52.020118 136.95459 20.905317 98.267578 18.992188 L 98.267578 0 L 90.708984 0 z M 90.708984 26.566406 L 90.708984 37.935547 C 62.45113 39.805167 39.805167 62.451133 37.935547 90.708984 L 26.566406 90.708984 C 28.454703 56.106245 56.106245 28.454703 90.708984 26.566406 z M 98.267578 26.566406 C 132.86948 28.455563 160.5219 56.10684 162.41016 90.708984 L 151.05469 90.708984 A 56.692913 56.692913 0 0 0 113.80664 41.1875 C 113.80471 41.186797 113.80271 41.186249 113.80078 41.185547 A 56.692913 56.692913 0 0 0 111.32617 40.353516 C 111.22285 40.321263 111.1192 40.289487 111.01562 40.257812 A 56.692913 56.692913 0 0 0 108.82422 39.638672 C 108.64213 39.590979 108.46014 39.543962 108.27734 39.498047 A 56.692913 56.692913 0 0 0 106.08594 38.996094 C 105.8974 38.956697 105.70875 38.918369 105.51953 38.880859 A 56.692913 56.692913 0 0 0 103.24219 38.474609 C 103.09339 38.451425 102.9441 38.430223 102.79492 38.408203 A 56.692913 56.692913 0 0 0 100.4043 38.105469 C 100.29434 38.094007 100.18436 38.083095 100.07422 38.072266 A 56.692913 56.692913 0 0 0 98.267578 37.919922 L 98.267578 26.566406 z M 94.488281 45.353516 L 94.488281 94.488281 L 143.62109 94.488281 C 143.6211 121.66909 121.66909 143.62109 94.488281 143.62109 C 67.307469 143.62109 45.353512 121.66909 45.353516 94.488281 C 45.353516 67.307476 67.307469 45.353516 94.488281 45.353516 z M 26.566406 98.267578 L 37.935547 98.267578 C 39.805165 126.52543 62.45113 149.1714 90.708984 151.04102 L 90.708984 162.41016 C 56.10684 160.5219 28.455563 132.86948 26.566406 98.267578 z M 150.98242 98.267578 L 162.41016 98.267578 C 160.52104 132.86889 132.86889 160.52104 98.267578 162.41016 L 98.267578 151.04102 C 126.51482 149.17017 149.10939 126.5189 150.98242 98.267578 z "
       style="color:#000000;font-style:normal;font-variant:normal;font-weight:normal;font-stretch:normal;font-size:medium;line-height:normal;font-family:sans-serif;font-variant-ligatures:normal;font-variant-position:normal;font-variant-caps:normal;font-variant-numeric:normal;font-variant-alternates:normal;font-variant-east-asian:normal;font-feature-settings:normal;font-variation-settings:normal;text-indent:0;text-align:start;text-decoration:none;text-decoration-line:none;text-decoration-style:solid;text-decoration-color:#000000;letter-spacing:normal;word-spacing:normal;text-transform:none;writing-mode:lr-tb;direction:ltr;text-orientation:mixed;dominant-baseline:auto;baseline-shift:baseline;text-anchor:start;white-space:normal;shape-padding:0;shape-margin:0;inline-size:0;clip-rule:nonzero;display:inline;overflow:visible;visibility:visible;opacity:1;isolation:auto;mix-blend-mode:normal;color-interpolation:sRGB;color-interpolation-filters:linearRGB;solid-color:#000000;solid-opacity:1;vector-effect:none;fill:#808080;fill-opacity:1;fill-rule:nonzero;stroke:none;stroke-width:3.78000002;stroke-linecap:round;stroke-linejoin:round;stroke-miterlimit:4;stroke-dasharray:none;stroke-dashoffset:0;stroke-opacity:1;paint-order:stroke fill markers;color-rendering:auto;image-rendering:auto;shape-rendering:auto;text-rendering:auto;enable-background:accumulate;stop-color:#000000;stop-opacity:1"
       id="path2653"
       fill="param(fill)"
       stroke="param(outline)"
       stroke-width="param(outline-width) 0"
       fill-opacity="param(fill-opacity)"
       stroke-opacity="param(outline-opacity)" />
  </g>
  <style
     type="text/css"
     id="style835">
	.st0{fill:#FFFFFF;}
	.st1{fill:#1C1B1C;}
	.st2{fill:#FFF200;}
	.st3{fill:#1D1A00;}
	.st4{fill:#EC008C;}
	.st5{fill:#1E0008;}
	.st6{fill:#ED1C24;}
	.st7{fill:#1E0000;}
	.st8{fill:#00AEEF;}
	.st9{fill:#00121D;}
	.st10{fill:#00A651;}
	.st11{fill:#001300;}
	.st12{fill:#2E3192;}
	.st13{fill:#00000D;}
	.st14{fill:#363639;}
</style>
</svg>
